# xmcd
#
# Track frame offsets:
#	150
#	228760
#	249050
#	276602
#
# Disc length: 4049 seconds
#
# Revision: 1
# Processed by: cddbd v1.5PL3 Copyright (c) Steve Scherf et al.
# Submitted via: CDex 1.50Beta5
#
DISCID=2b0fcf04
DTITLE=t jungle m -tetsuya komuro jungle masive- - -Secret Party-
DYEAR=1900
DGENRE=
TTITLE0=They Lied ~ Wow Waw Tonight
TTITLE1=Automatic(Jungle Mix)
TTITLE2=One Time Two Time
TTITLE3=Take Me Up(Jungle Remix)
EXTD=
EXTT0=
EXTT1=
EXTT2=
EXTT3=
PLAYORDER=
